<?xml version="1.0" encoding="UTF-8" standalone="no"?>
<svg
   height="64"
   viewBox="0 0 64 64"
   width="64"
   version="1.1"
   id="svg6"
   sodipodi:docname="transform_indicator.svg"
   inkscape:version="1.2.1 (9c6d41e410, 2022-07-14)"
   xmlns:inkscape="http://www.inkscape.org/namespaces/inkscape"
   xmlns:sodipodi="http://sodipodi.sourceforge.net/DTD/sodipodi-0.dtd"
   xmlns="http://www.w3.org/2000/svg"
   xmlns:svg="http://www.w3.org/2000/svg">
  <defs
     id="defs10" />
  <sodipodi:namedview
     id="namedview8"
     pagecolor="#ffffff"
     bordercolor="#000000"
     borderopacity="0.25"
     inkscape:showpageshadow="2"
     inkscape:pageopacity="0.0"
     inkscape:pagecheckerboard="0"
     inkscape:deskcolor="#d1d1d1"
     showgrid="false"
     inkscape:zoom="16.046875"
     inkscape:cx="19.037975"
     inkscape:cy="35.178189"
     inkscape:window-width="2560"
     inkscape:window-height="1361"
     inkscape:window-x="-9"
     inkscape:window-y="-9"
     inkscape:window-maximized="1"
     inkscape:current-layer="svg6" />
  <g
     id="g6740"
     transform="scale(4)">
    <path
       id="path378"
       d="M 1,1 H 15 V 15 H 1 Z M 1,0 C 0.44771525,0 0,0.44771525 0,1 v 14 c 0,0.552285 0.44771525,1 1,1 h 14 c 0.552285,0 1,-0.447715 1,-1 V 1 C 16,0.44771525 15.552285,0 15,0 Z"
       style="fill:#e0e0e0;fill-opacity:0.996078"
       sodipodi:nodetypes="cccccsssssssss" />
    <g
       aria-label="Tile"
       id="text6654"
       style="font-size:8px;fill:#e0e0e0;fill-opacity:0.996078">
      <path
         d="M 2.5703125,10.980469 V 6.2734375 h -1.71875 V 5.1640625 H 5.75 v 1.109375 H 4.03125 v 4.7070315 z"
         style="font-weight:bold;font-family:Tahoma;-inkscape-font-specification:'Tahoma Bold'"
         id="path6712" />
      <path
         d="M 7.640625,10.980469 H 6.2734375 V 6.59375 H 7.640625 Z M 7.6796875,5.96875 H 6.234375 V 4.9023437 h 1.4453125 z"
         style="font-weight:bold;font-family:Tahoma;-inkscape-font-specification:'Tahoma Bold'"
         id="path6714" />
      <path
         d="M 10.054688,10.980469 H 8.6875 V 4.9023437 h 1.367188 z"
         style="font-weight:bold;font-family:Tahoma;-inkscape-font-specification:'Tahoma Bold'"
         id="path6716" />
      <path
         d="m 13.347656,11.097656 q -1.242187,0 -1.90625,-0.59375 Q 10.78125,9.9101563 10.78125,8.8125 q 0,-1.0742188 0.617188,-1.7148438 0.617187,-0.640625 1.726562,-0.640625 1.007813,0 1.515625,0.5429688 0.507813,0.5429687 0.507813,1.5546875 V 9.046875 h -2.996094 q 0.01953,0.3046875 0.128906,0.5117188 0.109375,0.203125 0.289063,0.3242187 0.175781,0.1210935 0.410156,0.1757815 0.234375,0.05078 0.511719,0.05078 0.238281,0 0.46875,-0.05078 0.230468,-0.05469 0.421875,-0.1406252 0.167968,-0.074219 0.308593,-0.1601563 0.144532,-0.085937 0.234375,-0.1523437 h 0.144532 v 1.1289062 q -0.167969,0.06641 -0.308594,0.125 -0.136719,0.05469 -0.378906,0.113281 -0.222657,0.05859 -0.460938,0.08984 -0.234375,0.03516 -0.574219,0.03516 z M 13.800781,8.2226563 Q 13.789063,7.7890625 13.597656,7.5625 q -0.1875,-0.2265625 -0.578125,-0.2265625 -0.398437,0 -0.625,0.2382812 Q 12.171875,7.8125 12.148438,8.2226563 Z"
         style="font-weight:bold;font-family:Tahoma;-inkscape-font-specification:'Tahoma Bold'"
         id="path6718" />
    </g>
  </g>
</svg>
